# xmcd CD database file
#
# Track frame offsets:
#	150
#	21684
#	42574
#	60407
#	73671
#	97976
#	115294
#	139259
#	154501
#	173586
#	191393
#	218807
#	244139
#	267307
#	288495
#
# Disc length: 4127 seconds
#
# Revision: 4
# Processed by: cddbd v1.5.1PL0 Copyright (c) Steve Scherf et al.
# Submitted via: CDex 1.51
#
DISCID=dd101d0f
DTITLE=Raphael - Raphael Singles
DYEAR=2001
DGENRE=Rock
TTITLE0=White Love Story
TTITLE1=夢より素敵な
TTITLE2=Sweet Romance
TTITLE3=follow you
TTITLE4=花咲く命ある限り
TTITLE5=「・・・」〜或る季節の鎮魂歌〜
TTITLE6=eternal wish〜届かぬ君へ〜
TTITLE7=窓際の夢
TTITLE8=promise
TTITLE9=cadenza
TTITLE10=lost graduation
TTITLE11=Evergreen
TTITLE12=Gebet〜祈り〜
TTITLE13=秋風の狂詩曲
TTITLE14=不滅花
EXTD=YEAR: 2001
EXTT0=
EXTT1=
EXTT2=
EXTT3=
EXTT4=
EXTT5=
EXTT6=
EXTT7=
EXTT8=
EXTT9=
EXTT10=
EXTT11=
EXTT12=
EXTT13=
EXTT14=
PLAYORDER=
